<svg width="206" height="211" viewBox="0 0 206 211" fill="none" xmlns="http://www.w3.org/2000/svg">
<circle cx="103" cy="105" r="103" fill="#E6F2F2"/>
<circle cx="104" cy="105" r="73" fill="#A2D0D9"/>
<path d="M79.8566 159.882L69.6324 154.318C65.7369 168.852 61.5938 166.568 55.0768 165.667C39.414 163.501 85.0256 191.396 76.2877 178.327C73.159 173.647 67.8944 169.874 79.8566 159.882V159.882Z" fill="#FFB09A" fill-opacity="0.972093" stroke="black" stroke-width="0.370099" stroke-linecap="round" stroke-linejoin="round"/>
<path d="M55.0143 92.2188C48.3652 106.001 46.816 121.469 50.7071 135.226C54.5982 148.982 63.6114 159.903 75.7669 165.589C87.9225 171.274 102.226 171.26 115.537 165.549C128.848 159.839 140.076 148.898 146.757 135.131C153.438 121.364 155.024 105.896 151.167 92.1241C147.311 78.3526 138.327 67.4036 126.188 61.6823C114.05 55.9609 99.7504 55.9349 86.4298 61.6099C73.1092 67.285 61.8571 78.1971 55.145 91.9495L100.918 113.608L55.0143 92.2188Z" fill="#281E1C"/>
<path d="M57.4628 93.6316C51.1231 106.86 49.4684 121.636 52.856 134.771C56.2436 147.905 64.4018 158.344 75.5688 163.832C86.7358 169.32 100.016 169.418 112.541 164.104C125.065 158.79 135.83 148.491 142.511 135.43C149.192 122.37 151.252 107.596 148.246 94.2991C145.241 81.0024 137.411 70.2496 126.448 64.3628C115.485 58.4759 102.268 57.9274 89.6516 62.8356C77.0349 67.7438 66.0309 77.7148 59.0157 90.5957" fill="#FFC1B0"/>
<path d="M122.911 160.323C157.852 138.236 168.242 58.6372 102.684 61.258C22.3519 68.7766 100.758 174.83 120.205 159.676" fill="url(#paint0_linear_901_507)"/>
<path d="M69.5806 110.649C54.4348 108.36 52.4665 94.8161 65.1873 80.4168C77.9085 66.0175 97.7327 56.7463 114.244 60.1961C129.303 63.3426 142.006 69.1201 129.285 83.5195C116.645 97.8276 85.0301 112.82 69.8552 110.689" fill="url(#paint1_linear_901_507)"/>
<path d="M76.0054 162.953L68.3579 158.782C65.5674 169.458 62.4686 167.747 57.6131 167.036C45.9444 165.33 80.0843 186.198 73.487 176.511C71.1247 173.042 67.1801 170.226 76.0057 162.953L76.0054 162.953Z" fill="#FFB09A"/>
<path d="M96.744 122.071C93.3102 119.68 88.3568 121.003 85.6865 125.026C83.016 129.049 83.6357 134.255 87.0692 136.646C90.5029 139.037 95.4564 137.713 98.1266 133.691C100.78 129.694 100.191 124.53 96.8057 122.114" fill="#E51E3A"/>
<path d="M96.744 122.071C93.3102 119.68 88.3568 121.003 85.6865 125.026C83.016 129.049 83.6357 134.255 87.0692 136.646C90.5029 139.037 95.4564 137.713 98.1266 133.691C100.78 129.694 100.191 124.53 96.8057 122.114" stroke="black" stroke-width="0.203915"/>
<path d="M121.242 113.532C119.268 112.081 116.671 111.519 114.021 111.969C111.372 112.42 108.886 113.847 107.112 115.936C105.337 118.024 104.418 120.604 104.558 123.108C104.698 125.612 105.884 127.835 107.856 129.287C109.828 130.74 112.425 131.304 115.075 130.855C117.725 130.406 120.211 128.98 121.987 126.893C123.763 124.805 124.683 122.225 124.545 119.721C124.407 117.217 123.222 114.993 121.251 113.539" fill="white"/>
<path d="M121.242 113.532C119.268 112.081 116.671 111.519 114.021 111.969C111.372 112.42 108.886 113.847 107.112 115.936C105.337 118.024 104.418 120.604 104.558 123.108C104.698 125.612 105.884 127.835 107.856 129.287C109.828 130.74 112.425 131.304 115.075 130.855C117.725 130.406 120.211 128.98 121.987 126.893C123.763 124.805 124.683 122.225 124.545 119.721C124.407 117.217 123.222 114.993 121.251 113.539" stroke="black" stroke-width="0.393956" stroke-linecap="round" stroke-linejoin="round"/>
<path d="M114.902 120.026C113.778 119.198 112.312 118.862 110.827 119.091C109.342 119.32 107.958 120.096 106.981 121.248C106.004 122.399 105.513 123.833 105.616 125.233C105.719 126.634 106.408 127.886 107.531 128.714C108.654 129.543 110.12 129.881 111.605 129.653C113.09 129.424 114.474 128.65 115.452 127.498C116.43 126.347 116.922 124.913 116.82 123.513C116.718 122.113 116.03 120.86 114.907 120.03" fill="black"/>
<path d="M91.9106 96.4193C94.1475 97.4245 95.907 99.4044 96.8022 101.923C97.6975 104.443 97.6552 107.295 96.6846 109.853C95.714 112.411 93.8947 114.465 91.6266 115.564C89.3586 116.663 86.8275 116.717 84.59 115.713C82.3525 114.71 80.5918 112.731 79.695 110.213C78.7983 107.695 78.8389 104.842 79.808 102.284C80.7771 99.7251 82.5953 97.6694 84.8627 96.5687C87.1302 95.4681 89.6613 95.4125 91.8994 96.4143" fill="white"/>
<path d="M91.9106 96.4193C94.1475 97.4245 95.907 99.4044 96.8022 101.923C97.6975 104.443 97.6552 107.295 96.6846 109.853C95.714 112.411 93.8947 114.465 91.6266 115.564C89.3586 116.663 86.8275 116.717 84.59 115.713C82.3525 114.71 80.5918 112.731 79.695 110.213C78.7983 107.695 78.8389 104.842 79.808 102.284C80.7771 99.7251 82.5953 97.6694 84.8627 96.5687C87.1302 95.4681 89.6613 95.4125 91.8994 96.4143" stroke="black" stroke-width="0.393956" stroke-linecap="round" stroke-linejoin="round"/>
<path d="M89.2989 105.088C90.574 105.659 91.5839 106.767 92.1065 108.168C92.6292 109.568 92.6217 111.147 92.0858 112.556C91.55 113.966 90.5295 115.09 89.2489 115.683C87.9683 116.276 86.5324 116.289 85.2569 115.718C83.9815 115.147 82.9709 114.04 82.4474 112.64C81.9239 111.24 81.9304 109.661 82.4654 108.251C83.0005 106.842 84.0203 105.716 85.3005 105.122C86.5808 104.529 88.0167 104.515 89.2925 105.085" fill="black"/>
<path d="M94.5443 107.572C87.3166 102.173 81.4821 99.0846 76.16 96.8453C73.0741 95.5468 69.7093 95.8659 68.1898 98.438L66.2483 101.724C64.7288 104.297 65.837 107.728 68.733 109.417C74.8572 112.99 79.9117 116.38 87.1173 120.144C89.7137 121.5 92.2524 119.645 94.271 117.794L97.029 115.265C99.2535 113.224 97.2245 109.574 94.5443 107.572V107.572Z" stroke="#6F6F6F" stroke-width="0.230485" stroke-linecap="round" stroke-linejoin="round"/>
<path d="M94.0489 107.538C86.8211 102.14 80.4061 98.3465 74.9261 96.5915C71.686 95.5539 69.7104 96.2643 68.1026 98.7832L65.982 102.105C64.3742 104.624 65.3415 107.694 68.2376 109.384C74.3618 112.957 79.4163 116.347 86.6218 120.111C89.2183 121.467 91.757 119.612 93.7756 117.761L96.5336 115.231C98.7581 113.191 96.7291 109.54 94.0489 107.538V107.538Z" fill="url(#paint2_linear_901_507)"/>
<path d="M91.7912 106.211C85.5991 107.871 79.5286 115.471 79.5286 115.471C79.5286 115.471 79.4825 115.373 83.1702 117.596C83.1702 117.596 86.8491 111.634 94.9013 108.166C91.5976 106.139 94.4269 108.299 91.7912 106.211V106.211Z" fill="url(#paint3_linear_901_507)"/>
<path d="M89.7873 104.796C83.5655 106.506 77.4322 114.212 77.4322 114.212C77.4322 114.212 77.3865 114.113 81.0738 116.337C81.0738 116.337 84.7984 110.298 92.8966 106.753C89.5935 104.725 92.4199 106.889 89.7872 104.796L89.7873 104.796Z" fill="url(#paint4_linear_901_507)"/>
<path d="M109.67 116.397C117.935 120.038 123.493 123.596 128.054 127.123C130.699 129.169 132.058 132.244 130.539 134.816L128.597 138.103C127.078 140.675 123.523 141.385 120.627 139.695C114.503 136.122 109.061 133.388 102.243 128.969C99.7858 127.377 100.178 124.27 100.821 121.616L101.7 117.99C102.408 115.065 106.605 115.047 109.67 116.397V116.397Z" stroke="#6F6F6F" stroke-width="0.230485" stroke-linecap="round" stroke-linejoin="round"/>
<path d="M109.939 116.809C118.205 120.45 124.664 124.168 128.877 128.069C131.368 130.375 131.706 132.435 130.276 135.058L128.391 138.517C126.961 141.14 123.792 141.797 120.896 140.107C114.772 136.534 109.33 133.8 102.512 129.381C100.055 127.788 100.447 124.681 101.09 122.027L101.969 118.401C102.677 115.477 106.874 115.458 109.939 116.809V116.809Z" fill="url(#paint5_linear_901_507)"/>
<path d="M112.203 118.119C113.763 124.302 110.043 133.273 110.043 133.273C110.043 133.273 110.152 133.266 106.401 131.149C106.401 131.149 109.847 125.051 108.97 116.373C112.361 118.252 109.084 116.85 112.203 118.119V118.119Z" fill="url(#paint6_linear_901_507)"/>
<path d="M114.43 119.175C115.959 125.408 112.177 134.486 112.177 134.486C112.177 134.486 112.286 134.477 108.535 132.361C108.535 132.361 112.026 126.186 111.195 117.43C114.587 119.308 111.308 117.91 114.429 119.175L114.43 119.175Z" fill="url(#paint7_linear_901_507)"/>
<path d="M140.888 85.196C166.959 103.343 176.793 118.83 162.838 119.766C148.883 120.701 116.397 106.733 90.3259 88.5855C64.2545 70.4385 54.421 54.9511 68.3761 54.0156C76.2576 53.4873 88.9805 57.2 105.374 64.8119" fill="black"/>
<path d="M111.284 105.941C141.966 122.038 168.426 126.594 170.384 116.117C172.343 105.64 149.058 84.0971 118.376 68.0002C87.6946 51.9033 61.2346 47.3476 59.2762 57.8247C57.3178 68.3018 80.6025 89.8443 111.284 105.941Z" fill="black"/>
<g filter="url(#filter0_f_901_507)">
<path d="M90.8205 70.9442C90.4525 66.9366 102.224 69.1254 117.112 75.833C132 82.5406 144.368 91.2269 144.736 95.2345C145.104 99.2421 133.333 97.0533 118.445 90.3457C103.556 83.6381 91.1885 74.9518 90.8205 70.9442Z" fill="black"/>
<path d="M90.8205 70.9442C90.4525 66.9366 102.224 69.1254 117.112 75.833C132 82.5406 144.368 91.2269 144.736 95.2345C145.104 99.2421 133.333 97.0533 118.445 90.3457C103.556 83.6381 91.1885 74.9518 90.8205 70.9442Z" stroke="white" stroke-width="0.136164"/>
</g>
<g filter="url(#filter1_f_901_507)">
<path d="M99.2487 60.4438L99.1582 59.6366L92.1128 70.4615L92.2033 71.2687L99.2487 60.4438Z" fill="white"/>
<path d="M99.2487 60.4438L99.1582 59.6366L92.1128 70.4615L92.2033 71.2687L99.2487 60.4438Z" stroke="white" stroke-width="0.0480668" stroke-linecap="round" stroke-linejoin="bevel"/>
</g>
<g filter="url(#filter2_f_901_507)">
<path d="M150.071 88.3321L149.98 87.5249L142.935 98.3498L143.026 99.157L150.071 88.3321Z" fill="white"/>
<path d="M150.071 88.3321L149.98 87.5249L142.935 98.3498L143.026 99.157L150.071 88.3321Z" stroke="white" stroke-width="0.0480668" stroke-linecap="round" stroke-linejoin="bevel"/>
</g>
<path d="M130.307 96.241C130.433 96.142 130.582 96.0692 130.723 96.038C130.864 96.0068 130.986 96.0198 131.063 96.0742C131.139 96.1286 131.164 96.22 131.132 96.329C131.101 96.438 131.015 96.5559 130.893 96.6574C130.771 96.7589 130.623 96.8359 130.48 96.8721C130.337 96.9082 130.211 96.9007 130.129 96.8509C130.047 96.8012 130.015 96.7133 130.041 96.6059C130.066 96.4986 130.146 96.3805 130.264 96.2767" fill="black"/>
<path d="M173.959 61.6972C178.502 59.0336 168.162 48.5446 150.864 38.2693C133.566 27.994 115.861 21.8235 111.318 24.487C106.775 27.1506 117.115 37.6396 134.413 47.9149C151.711 58.1902 169.416 64.3607 173.959 61.6972Z" fill="black"/>
<path fill-rule="evenodd" clip-rule="evenodd" d="M110.695 28.3457L110.913 31.553L110.345 35.4698L108.775 41.9436L105.332 48.7588L102.273 53.8908L99.8391 57.7719L97.071 62.084L92.9953 68.3797L90.4889 71.6129C90.4889 71.6129 91.1064 72.9952 92.4028 74.3258C93.6993 75.6564 95.6746 76.9353 95.6746 76.9353L101.137 80.2894L107.993 84.4756L116.535 89.028L127.386 93.715L135.739 96.5829L138.034 96.5878L143.81 88.3958L148.685 82.4041L155.456 74.5597C155.456 74.5597 156.9 72.6886 159.303 70.6643C161.705 68.6399 165.066 66.4623 165.066 66.4623L170.834 63.3225L173.534 61.9047L170.558 60.8605L162.373 57.7771L148.478 51.5291L139.137 46.6727L129.978 41.7304L120.536 35.9669L113.089 30.4009L110.694 28.3458L110.695 28.3457Z" fill="black"/>
<path fill-rule="evenodd" clip-rule="evenodd" d="M111.432 26.7065L113.785 28.7589L110.969 33.9556C110.969 33.9556 110.587 36.9859 109.284 40.3837C107.981 43.7815 105.758 47.547 105.758 47.547L102.627 52.8135L100.138 56.7982L97.3093 61.2266L93.1451 67.6924L90.5946 71.0196C90.5946 71.0196 91.1882 72.4153 92.4594 73.7476C93.7306 75.08 95.6795 76.3491 95.6795 76.3491C95.6795 76.3491 97.3849 77.8437 100.425 79.7116C103.465 81.5794 104.855 82.4042 108.819 84.5558C112.784 86.7066 116.282 88.315 116.282 88.315L127.026 92.9086L135.308 95.6923L137.596 95.6609L143.486 87.24L148.442 81.0706L155.317 72.9874C155.317 72.9874 156.787 71.062 159.215 68.9657C161.643 66.8693 165.029 64.6019 165.029 64.6019L170.829 61.318L174.71 59.948L170.594 58.8191L162.482 55.8137L148.729 49.681L139.495 44.8911L130.442 40.0109L121.121 34.3004L113.785 28.759L111.431 26.7075L111.432 26.7065Z" fill="black"/>
<path fill-rule="evenodd" clip-rule="evenodd" d="M111.431 26.7074L110.914 31.554L110.273 35.3026C110.273 35.3026 110.303 38.4621 109.496 42.0036C108.69 45.5451 107.048 49.4686 107.048 49.4686L104.729 54.9562L102.86 59.1081L100.722 63.722L97.5683 70.4587L95.5532 73.9245C95.5532 73.9245 96.3066 75.3809 97.7028 76.7722C99.0991 78.1635 101.138 79.4899 101.138 79.4899C101.138 79.4899 102.973 81.0511 106.139 83.0034C109.306 84.9557 110.75 85.8178 114.841 88.0666C118.933 90.3155 122.506 91.9978 122.506 91.9978L133.432 96.8041L141.756 99.7192L143.95 99.6899L148.506 90.9169L152.459 84.4904L158.007 76.0709C158.007 76.0709 159.168 74.0658 161.226 71.8827C163.284 69.7001 166.24 67.3404 166.24 67.3404L170.836 63.3237L174.71 59.9481L170.83 61.3181L162.641 58.172L148.621 51.7563L139.119 46.7476L129.78 41.6448L120.074 35.6759L112.298 29.8863L113.261 27.1175L111.431 26.7074Z" fill="black"/>
<defs>
<filter id="filter0_f_901_507" x="90.1761" y="68.2923" width="55.2044" height="29.594" filterUnits="userSpaceOnUse" color-interpolation-filters="sRGB">
<feFlood flood-opacity="0" result="BackgroundImageFix"/>
<feBlend mode="normal" in="SourceGraphic" in2="BackgroundImageFix" result="shape"/>
<feGaussianBlur stdDeviation="0.286939" result="effect1_foregroundBlur_901_507"/>
</filter>
<filter id="filter1_f_901_507" x="91.4462" y="58.9594" width="8.46884" height="12.9864" filterUnits="userSpaceOnUse" color-interpolation-filters="sRGB">
<feFlood flood-opacity="0" result="BackgroundImageFix"/>
<feBlend mode="normal" in="SourceGraphic" in2="BackgroundImageFix" result="shape"/>
<feGaussianBlur stdDeviation="0.326682" result="effect1_foregroundBlur_901_507"/>
</filter>
<filter id="filter2_f_901_507" x="142.269" y="86.8477" width="8.46884" height="12.9864" filterUnits="userSpaceOnUse" color-interpolation-filters="sRGB">
<feFlood flood-opacity="0" result="BackgroundImageFix"/>
<feBlend mode="normal" in="SourceGraphic" in2="BackgroundImageFix" result="shape"/>
<feGaussianBlur stdDeviation="0.326682" result="effect1_foregroundBlur_901_507"/>
</filter>
<linearGradient id="paint0_linear_901_507" x1="173.645" y1="83.9121" x2="92.8481" y2="99.9271" gradientUnits="userSpaceOnUse">
<stop stop-color="#FF4848"/>
<stop offset="1" stop-color="#FF6C6C" stop-opacity="0"/>
</linearGradient>
<linearGradient id="paint1_linear_901_507" x1="106.176" y1="58.1784" x2="104.766" y2="67.5268" gradientUnits="userSpaceOnUse">
<stop stop-color="#FCFCFC"/>
<stop offset="1" stop-color="#FCFCFC" stop-opacity="0"/>
</linearGradient>
<linearGradient id="paint2_linear_901_507" x1="67.6956" y1="100.537" x2="95.8764" y2="116.21" gradientUnits="userSpaceOnUse">
<stop stop-color="white" stop-opacity="0.674877"/>
<stop offset="1" stop-color="#FCFCFC" stop-opacity="0"/>
</linearGradient>
<linearGradient id="paint3_linear_901_507" x1="100.112" y1="116.768" x2="86.9857" y2="106.718" gradientUnits="userSpaceOnUse">
<stop stop-color="white"/>
<stop offset="1" stop-color="white" stop-opacity="0"/>
</linearGradient>
<linearGradient id="paint4_linear_901_507" x1="98.0761" y1="115.407" x2="84.9322" y2="105.375" gradientUnits="userSpaceOnUse">
<stop stop-color="white"/>
<stop offset="1" stop-color="white" stop-opacity="0"/>
</linearGradient>
<linearGradient id="paint5_linear_901_507" x1="128.934" y1="136.266" x2="101.614" y2="119.152" gradientUnits="userSpaceOnUse">
<stop stop-color="white" stop-opacity="0.674877"/>
<stop offset="1" stop-color="#FCFCFC" stop-opacity="0"/>
</linearGradient>
<linearGradient id="paint6_linear_901_507" x1="98.8726" y1="116.043" x2="114.03" y2="122.696" gradientUnits="userSpaceOnUse">
<stop stop-color="white"/>
<stop offset="1" stop-color="white" stop-opacity="0"/>
</linearGradient>
<linearGradient id="paint7_linear_901_507" x1="101.067" y1="117.153" x2="116.217" y2="123.83" gradientUnits="userSpaceOnUse">
<stop stop-color="white"/>
<stop offset="1" stop-color="white" stop-opacity="0"/>
</linearGradient>
</defs>
</svg>
