<svg width="96" height="138" viewBox="0 0 96 138" fill="none" xmlns="http://www.w3.org/2000/svg">
<g opacity="0.9">
<path d="M35.9596 86.6286C30.0596 98.4819 4.36657 106.47 8.22268 93.0852C13.1129 76.1114 35.6226 98.5253 33.5162 111.478C31.5196 123.756 16.8869 118.094 10.4329 136.517" stroke="white" stroke-opacity="0.42" stroke-width="2" stroke-miterlimit="1.5" stroke-linecap="round" stroke-linejoin="round"/>
<path fill-rule="evenodd" clip-rule="evenodd" d="M39.2565 74.7534C37.7308 73.4706 36.7887 71.6094 36.1461 69.7628C31.7354 57.0867 28.9187 40.5814 31.3822 28.3939C31.7055 26.6849 32.1835 24.9874 32.8234 23.322C32.963 22.956 33.109 22.5971 33.262 22.2448L33.2984 22.1605C39.5219 7.82592 55.7739 1.67426 69.6159 8.43023C83.4854 15.1998 89.7164 32.3817 83.5218 46.7758C82.4651 49.2312 81.1145 51.4481 79.5311 53.4037C72.5904 62.6646 60.4196 70.2975 47.617 75.4459C46.127 76.0448 44.0334 76.4537 42.2117 76.1525C42.1902 76.2321 42.163 76.3109 42.1295 76.3885C42.0813 76.5007 42.0226 76.6045 41.9552 76.6993C42.5396 77.3417 43.0499 78.1843 43.405 79.1632C44.3676 81.8176 43.8261 84.4751 42.1967 85.0945C41.3595 85.4126 40.3969 85.1311 39.5281 84.4218C38.5867 85.1222 37.5535 85.3499 36.6929 84.9298C35.8254 84.5064 35.3113 83.5118 35.2006 82.2812C34.0795 82.0589 33.2078 81.4568 32.8774 80.5458C32.2542 78.8271 33.7912 76.6555 36.3077 75.6992C37.255 75.339 38.2071 75.2023 39.0592 75.2636C39.0824 75.1541 39.1165 75.046 39.1621 74.9402C39.1901 74.8749 39.2218 74.8127 39.2565 74.7534V74.7534Z" fill="white" fill-opacity="0.42"/>
</g>
</svg>
